# xmcd
#
# Track frame offsets:
#	150
#	17422
#	36452
#	57567
#	74240
#	87195
#	101340
#	115947
#	133277
#	150562
#	164410
#	181682
#	200712
#	221827
#	238497
#	251452
#	265597
#	280205
#	297535
#	314820
#
# Disc length: 4382 seconds
#
# Revision: 1
# Processed by: cddbd v1.5.1PL2 Copyright (c) Steve Scherf et al.
# Submitted via: audiograbber 1.83.01
#
DISCID=3f111c14
DTITLE=Various (First name - Surname) - THM-C0609-SEPTEMBER 2006
DYEAR=2006
DGENRE=Country - Country - Karaoke
TTITLE0=Josh Turner  - Would You Go With Me ( Vocal )
TTITLE1=Brooks and Dunn - Building Bridges ( Vocal )
TTITLE2=Big and Rich - 8th of November ( Vocal )
TTITLE3=Shedaisy - In Terms Of Love ( Vocal )
TTITLE4=Jack Ingram - Love You ( Vocal )
TTITLE5=Gretchen Wilson - California Girls ( Vocal )
TTITLE6=Faith Hill - Sunshine and Summertime ( Vocal )
TTITLE7=Pat Green - Feels Just Like It Should ( Vocal )
TTITLE8=Rio Grand - Kill Me Now ( Vocal )
TTITLE9=Carolina Rain - Get Outta My Way ( Vocal )
TTITLE10=Josh Turner  - Would You Go With Me
TTITLE11=Brooks and Dunn - Building Bridges
TTITLE12=Big and Rich - 8th of November
TTITLE13=Shedaisy - In Terms Of Love
TTITLE14=Jack Ingram - Love You
TTITLE15=Gretchen Wilson - California Girls 
TTITLE16=Faith Hill - Sunshine and Summertime
TTITLE17=Pat Green - Feels Just Like It Should 
TTITLE18=Rio Grand - Kill Me Now
TTITLE19=Carolina Rain - Get Outta My Way 
EXTD=
EXTT0=
EXTT1=
EXTT2=
EXTT3=
EXTT4=
EXTT5=
EXTT6=
EXTT7=
EXTT8=
EXTT9=
EXTT10=
EXTT11=
EXTT12=
EXTT13=
EXTT14=
EXTT15=
EXTT16=
EXTT17=
EXTT18=
EXTT19=
PLAYORDER=
